<svg width="4140" height="1961" xmlns="http://www.w3.org/2000/svg" xmlns:xlink="http://www.w3.org/1999/xlink" xml:space="preserve" overflow="hidden"><g transform="translate(-25 -443)"><rect x="38.0002" y="1273" width="847" height="702" stroke="#000000" stroke-width="13.75" stroke-miterlimit="8" fill="#D9D9D9"/><rect x="38.0002" y="452" width="847" height="759" stroke="#000000" stroke-width="13.75" stroke-miterlimit="8" fill="#D9D9D9"/><text font-family="Arial,Arial_MSFontService,sans-serif" font-weight="700" font-size="92" transform="matrix(1 0 0 1 81.6261 1375)">Workload </text><text font-family="Arial,Arial_MSFontService,sans-serif" font-weight="700" font-size="92" transform="matrix(1 0 0 1 522.841 1375)">Config.</text><rect x="71.0002" y="596" width="769" height="130" stroke="#000000" stroke-width="10.3125" stroke-miterlimit="8" fill="#FFFFFF"/><text font-family="Arial,Arial_MSFontService,sans-serif" font-weight="400" font-size="92" transform="matrix(1 0 0 1 223.486 695)">Accelerator</text><text font-family="Arial,Arial_MSFontService,sans-serif" font-weight="700" font-size="92" transform="matrix(1 0 0 1 217.99 565)">HW Config.</text><rect x="38.0002" y="2222" width="845" height="144"/><text fill="#FFFFFF" font-family="Arial,Arial_MSFontService,sans-serif" font-weight="700" font-size="92" transform="matrix(1 0 0 1 348.411 2327)">Input</text><rect x="1150" y="2222" width="1822" height="144"/><text fill="#FFFFFF" font-family="Arial,Arial_MSFontService,sans-serif" font-weight="700" font-size="92" transform="matrix(1 0 0 1 1827.05 2327)">Simulation</text><rect x="3226" y="2222" width="931" height="144"/><text fill="#FFFFFF" font-family="Arial,Arial_MSFontService,sans-serif" font-weight="700" font-size="92" transform="matrix(1 0 0 1 3541.4 2327)">Output</text><path d="M883.5 2263.25 1092 2263.25 1092 2235.5 1147.5 2291 1092 2346.5 1092 2318.75 883.5 2318.75Z" stroke="#000000" stroke-width="4.58333" stroke-miterlimit="8" fill-rule="evenodd"/><path d="M2944.5 2263.25 3171 2263.25 3171 2235.5 3226.5 2291 3171 2346.5 3171 2318.75 2944.5 2318.75Z" stroke="#000000" stroke-width="4.58333" stroke-miterlimit="8" fill-rule="evenodd"/><rect x="71.0002" y="749" width="769" height="130" stroke="#000000" stroke-width="10.3125" stroke-miterlimit="8" fill="#FFFFFF"/><text font-family="Arial,Arial_MSFontService,sans-serif" font-weight="400" font-size="92" transform="matrix(1 0 0 1 231.175 848)">Vector Unit</text><rect x="71.0002" y="899" width="769" height="130" stroke="#000000" stroke-width="10.3125" stroke-miterlimit="8" fill="#FFFFFF"/><text font-family="Arial,Arial_MSFontService,sans-serif" font-weight="400" font-size="92" transform="matrix(1 0 0 1 236.377 998)">Matrix Unit</text><rect x="71.0002" y="1053" width="769" height="130" stroke="#000000" stroke-width="10.3125" stroke-miterlimit="8" fill="#FFFFFF"/><text font-family="Arial,Arial_MSFontService,sans-serif" font-weight="400" font-size="92" transform="matrix(1 0 0 1 124.658 1152)">Memory System</text><rect x="71.0002" y="1414" width="769" height="221" stroke="#000000" stroke-width="10.3125" stroke-miterlimit="8" fill="#FFFFFF"/><text font-family="Arial,Arial_MSFontService,sans-serif" font-weight="400" font-size="92" transform="matrix(1 0 0 1 80.7843 1504)">Embedding Vector</text><text font-family="Arial,Arial_MSFontService,sans-serif" font-weight="400" font-size="92" transform="matrix(1 0 0 1 254.126 1614)">Operation</text><rect x="71.0002" y="1657" width="769" height="130" stroke="#000000" stroke-width="10.3125" stroke-miterlimit="8" fill="#FFFFFF"/><text font-family="Arial,Arial_MSFontService,sans-serif" font-weight="400" font-size="92" transform="matrix(1 0 0 1 116.924 1756)">Matrix Operation</text><rect x="71.0002" y="1811" width="769" height="130" stroke="#000000" stroke-width="10.3125" stroke-miterlimit="8" fill="#FFFFFF"/><text font-family="Arial,Arial_MSFontService,sans-serif" font-weight="400" font-size="92" transform="matrix(1 0 0 1 338.07 1910)">Batch</text><rect x="1150" y="845" width="1814" height="484" stroke="#000000" stroke-width="13.75" stroke-miterlimit="8" fill="#595959"/><text fill="#FFFFFF" font-family="Arial,Arial_MSFontService,sans-serif" font-weight="700" font-size="92" transform="matrix(1 0 0 1 1652.74 958)">Request Generator</text><rect x="1179" y="1003" width="1750" height="130" stroke="#000000" stroke-width="10.3125" stroke-miterlimit="8" fill="#FFFFFF"/><text font-family="Arial,Arial_MSFontService,sans-serif" font-weight="400" font-size="92" transform="matrix(1 0 0 1 1302.48 1102)">Embedding Vector Index</text><text font-family="Arial,Arial_MSFontService,sans-serif" font-weight="400" font-size="92" transform="matrix(1 0 0 1 2300.59 1102)">-</text><text font-family="Arial,Arial_MSFontService,sans-serif" font-weight="400" font-size="92" transform="matrix(1 0 0 1 2330.96 1102)">Level Trace</text><rect x="1179" y="1156" width="1750" height="130" stroke="#000000" stroke-width="10.3125" stroke-miterlimit="8" fill="#FFFFFF"/><text font-family="Arial,Arial_MSFontService,sans-serif" font-weight="400" font-size="92" transform="matrix(1 0 0 1 1458.03 1255)">Memory Address</text><text font-family="Arial,Arial_MSFontService,sans-serif" font-weight="400" font-size="92" transform="matrix(1 0 0 1 2145.05 1255)">-</text><text font-family="Arial,Arial_MSFontService,sans-serif" font-weight="400" font-size="92" transform="matrix(1 0 0 1 2175.41 1255)">Level Trace</text><rect x="1150" y="450" width="1814" height="341" stroke="#000000" stroke-width="13.75" stroke-miterlimit="8" fill="#595959"/><text fill="#FFFFFF" font-family="Arial,Arial_MSFontService,sans-serif" font-weight="700" font-size="92" transform="matrix(1 0 0 1 1569.09 563)">Memory System Model</text><rect x="1179" y="613" width="1750" height="130" stroke="#000000" stroke-width="10.3125" stroke-miterlimit="8" fill="#FFFFFF"/><text font-family="Arial,Arial_MSFontService,sans-serif" font-weight="400" font-size="92" transform="matrix(1 0 0 1 1198.6 712)">Memory Structure Generation/Initialization</text><rect x="1150" y="1394" width="846" height="764" stroke="#000000" stroke-width="13.75" stroke-miterlimit="8" fill="#595959"/><text fill="#FFFFFF" font-family="Arial,Arial_MSFontService,sans-serif" font-weight="700" font-size="92" transform="matrix(1 0 0 1 1238.82 1507)">Memory Access </text><text fill="#FFFFFF" font-family="Arial,Arial_MSFontService,sans-serif" font-weight="700" font-size="92" transform="matrix(1 0 0 1 1352 1617)">Simulation</text><rect x="2037" y="1398" width="926" height="760" stroke="#000000" stroke-width="13.75" stroke-miterlimit="8" fill="#595959"/><text fill="#FFFFFF" font-family="Arial,Arial_MSFontService,sans-serif" font-weight="700" font-size="92" transform="matrix(1 0 0 1 2175.45 1511)">Execution Time </text><text fill="#FFFFFF" font-family="Arial,Arial_MSFontService,sans-serif" font-weight="700" font-size="92" transform="matrix(1 0 0 1 2279.17 1621)">Simulation</text><rect x="1190" y="1655" width="778" height="219" stroke="#000000" stroke-width="10.3125" stroke-miterlimit="8" fill="#FFFFFF"/><text font-family="Arial,Arial_MSFontService,sans-serif" font-weight="400" font-size="92" transform="matrix(1 0 0 1 1230.41 1744)">On</text><text font-family="Arial,Arial_MSFontService,sans-serif" font-weight="400" font-size="92" transform="matrix(1 0 0 1 1352.44 1744)">-</text><text font-family="Arial,Arial_MSFontService,sans-serif" font-weight="400" font-size="92" transform="matrix(1 0 0 1 1382.81 1744)">Chip Memory </text><text font-family="Arial,Arial_MSFontService,sans-serif" font-weight="400" font-size="92" transform="matrix(1 0 0 1 1454.15 1854)">Model</text><rect x="1190" y="1905" width="778" height="218" stroke="#000000" stroke-width="10.3125" stroke-miterlimit="8" fill="#FFFFFF"/><text font-family="Arial,Arial_MSFontService,sans-serif" font-weight="400" font-size="92" transform="matrix(1 0 0 1 1227.26 1993)">mNPUsim</text><text font-family="Arial,Arial_MSFontService,sans-serif" font-weight="400" font-size="92" transform="matrix(1 0 0 1 1640.33 1993)">-</text><text font-family="Arial,Arial_MSFontService,sans-serif" font-weight="400" font-size="92" transform="matrix(1 0 0 1 1670.7 1993)">Based</text><text font-family="Arial,Arial_MSFontService,sans-serif" font-weight="400" font-size="92" transform="matrix(1 0 0 1 1276.23 2103)">Memory Model</text><rect x="2064" y="1655" width="872" height="146" stroke="#000000" stroke-width="10.3125" stroke-miterlimit="8" fill="#FFFFFF"/><text font-family="Arial,Arial_MSFontService,sans-serif" font-weight="400" font-size="92" transform="matrix(1 0 0 1 2240.11 1762)">Computation</text><rect x="2064" y="1821" width="872" height="145" stroke="#000000" stroke-width="10.3125" stroke-miterlimit="8" fill="#FFFFFF"/><text font-family="Arial,Arial_MSFontService,sans-serif" font-weight="400" font-size="92" transform="matrix(1 0 0 1 2120.94 1928)">Memory Operation</text><rect x="2064" y="1988" width="872" height="145" stroke="#000000" stroke-width="10.3125" stroke-miterlimit="8" fill="#FFFFFF"/><text font-family="Arial,Arial_MSFontService,sans-serif" font-weight="400" font-size="92" transform="matrix(1 0 0 1 2076.98 2095)">Total Execution Time</text><rect x="3226" y="452" width="931" height="1271" stroke="#000000" stroke-width="13.75" stroke-miterlimit="8" fill="#D9D9D9"/><text font-family="Arial,Arial_MSFontService,sans-serif" font-weight="700" font-size="92" transform="matrix(1 0 0 1 3530.74 565)">Results</text><rect x="3267" y="906" width="845" height="130" stroke="#000000" stroke-width="10.3125" stroke-miterlimit="8" fill="#FFFFFF"/><text font-family="Arial,Arial_MSFontService,sans-serif" font-weight="400" font-size="92" transform="matrix(1 0 0 1 3375.71 1005)">Execution Time</text><rect x="3267" y="1221" width="845" height="225" stroke="#000000" stroke-width="10.3125" stroke-miterlimit="8" fill="#FFFFFF"/><text font-family="Arial,Arial_MSFontService,sans-serif" font-weight="400" font-size="92" transform="matrix(1 0 0 1 3435.06 1312)"># of Memory </text><text font-family="Arial,Arial_MSFontService,sans-serif" font-weight="400" font-size="92" transform="matrix(1 0 0 1 3492.93 1422)">Accesses</text><rect x="3267" y="1470" width="845" height="225" stroke="#000000" stroke-width="10.3125" stroke-miterlimit="8" fill="#FFFFFF"/><text font-family="Arial,Arial_MSFontService,sans-serif" font-weight="400" font-size="92" transform="matrix(1 0 0 1 3365.98 1561)">Memory Access </text><text font-family="Arial,Arial_MSFontService,sans-serif" font-weight="400" font-size="92" transform="matrix(1 0 0 1 3582.02 1671)">Ratio</text><rect x="3267" y="601" width="845" height="130" stroke="#000000" stroke-width="10.3125" stroke-miterlimit="8" fill="#FFFFFF"/><text font-family="Arial,Arial_MSFontService,sans-serif" font-weight="400" font-size="92" transform="matrix(1 0 0 1 3378.34 700)">Overall Results</text><rect x="3267" y="755" width="845" height="129" stroke="#000000" stroke-width="10.3125" stroke-miterlimit="8" fill="#FFFFFF"/><text font-family="Arial,Arial_MSFontService,sans-serif" font-weight="400" font-size="92" transform="matrix(1 0 0 1 3325.06 854)">per</text><text font-family="Arial,Arial_MSFontService,sans-serif" font-weight="400" font-size="92" transform="matrix(1 0 0 1 3457.41 854)">-</text><text font-family="Arial,Arial_MSFontService,sans-serif" font-weight="400" font-size="92" transform="matrix(1 0 0 1 3487.77 854)">Batch Results</text><rect x="3227" y="1827" width="931" height="324" stroke="#000000" stroke-width="13.75" stroke-miterlimit="8" fill="#D9D9D9"/><text font-family="Arial,Arial_MSFontService,sans-serif" font-weight="700" font-size="92" transform="matrix(1 0 0 1 3294.96 1940)">Energy Estimation</text><rect x="3267" y="1981" width="846" height="130" stroke="#000000" stroke-width="10.3125" stroke-miterlimit="8" fill="#FFFFFF"/><text font-family="Arial,Arial_MSFontService,sans-serif" font-weight="400" font-size="92" transform="matrix(1 0 0 1 3488.6 2080)">Accelergy</text><rect x="3267" y="1063" width="845" height="129" stroke="#000000" stroke-width="10.3125" stroke-miterlimit="8" fill="#FFFFFF"/><text font-family="Arial,Arial_MSFontService,sans-serif" font-weight="400" font-size="92" transform="matrix(1 0 0 1 3361.4 1161)"># of Vector Ops.</text><rect x="38.0002" y="2034" width="847" height="144" stroke="#000000" stroke-width="13.75" stroke-miterlimit="8" fill="#D9D9D9"/><text font-family="Arial,Arial_MSFontService,sans-serif" font-weight="700" font-size="92" transform="matrix(1 0 0 1 166.689 2137)">Access Trace</text></g></svg>